<svg width="40" height="38" viewBox="0 0 40 38" fill="none" xmlns="http://www.w3.org/2000/svg">
<path d="M26.0802 24.2439L24.1824 25.3724L26.2824 26.0545C31.3504 27.7007 35.6325 31.1595 38.3077 35.768L38.3128 35.7768L38.3181 35.7854C38.3603 35.8549 38.3827 35.9347 38.3827 36.0159C38.3827 36.0972 38.3603 36.177 38.3181 36.2465L38.3084 36.2625L38.2993 36.2788C38.2587 36.3515 38.1993 36.4119 38.1273 36.4537C38.0553 36.4954 37.9733 36.5169 37.8901 36.516V36.5159H37.8788H1.50384V36.5159L1.49256 36.516C1.40933 36.5169 1.3274 36.4954 1.25539 36.4537C1.18338 36.4119 1.12397 36.3515 1.08343 36.2788L1.0743 36.2625L1.06457 36.2465C1.02234 36.177 1 36.0973 1 36.0159C1 35.9346 1.02234 35.8549 1.06457 35.7854L1.06984 35.7768L1.07494 35.768C3.75014 31.1595 8.03223 27.7007 13.1003 26.0545L15.2002 25.3724L13.3025 24.2439C10.9492 22.8446 9.12045 20.7113 8.09718 18.1718C7.07391 15.6323 6.91272 12.8271 7.63835 10.1871C8.36399 7.54709 9.93631 5.21836 12.1138 3.55863C14.2913 1.89891 16.9534 1 19.6913 1C22.4292 1 25.0914 1.89891 27.2689 3.55863C29.4464 5.21836 31.0187 7.54709 31.7443 10.1871C32.47 12.8271 32.3088 15.6323 31.2855 18.1718C30.2622 20.7113 28.4335 22.8446 26.0802 24.2439Z" stroke="#7C7C8A" stroke-width="2"/>
</svg>
